<svg width="18" height="20" viewBox="0 0 18 20" fill="none" xmlns="http://www.w3.org/2000/svg">
<path d="M12.6372 19.4118C12.6372 19.5678 12.5767 19.7174 12.4689 19.8277C12.3612 19.938 12.215 20 12.0627 20H5.93416C5.78178 20 5.63564 19.938 5.52789 19.8277C5.42014 19.7174 5.35961 19.5678 5.35961 19.4118C5.35961 19.2558 5.42014 19.1061 5.52789 18.9958C5.63564 18.8855 5.78178 18.8235 5.93416 18.8235H12.0627C12.215 18.8235 12.3612 18.8855 12.4689 18.9958C12.5767 19.1061 12.6372 19.2558 12.6372 19.4118ZM17.8187 16.1765C17.7025 16.3859 17.5339 16.5599 17.3302 16.6805C17.1266 16.8011 16.8952 16.864 16.66 16.8627H1.33778C1.10213 16.8622 0.870779 16.7981 0.667033 16.6769C0.463287 16.5557 0.29435 16.3816 0.177247 16.1723C0.0601434 15.9629 -0.000988375 15.7256 1.20854e-05 15.4844C0.00101255 15.2431 0.0641097 15.0064 0.182945 14.798C0.723976 13.8431 1.5293 11.151 1.5293 7.64706C1.5293 5.61893 2.31622 3.67387 3.71695 2.23977C5.11768 0.80567 7.01747 0 8.9984 0C10.9793 0 12.8791 0.80567 14.2799 2.23977C15.6806 3.67387 16.4675 5.61893 16.4675 7.64706C16.4675 11.15 17.2738 13.8431 17.8158 14.798C17.9359 15.0068 17.9995 15.2446 18 15.4869C18.0005 15.7291 17.9379 15.9672 17.8187 16.1765ZM16.8218 15.3922C16.0969 14.1176 15.3184 11.1451 15.3184 7.64706C15.3184 5.93095 14.6526 4.28513 13.4673 3.07166C12.2821 1.85819 10.6746 1.17647 8.9984 1.17647C7.32223 1.17647 5.71471 1.85819 4.52948 3.07166C3.34425 4.28513 2.67839 5.93095 2.67839 7.64706C2.67839 11.1461 1.89892 14.1176 1.17404 15.3922C1.15723 15.422 1.14838 15.4558 1.14838 15.4902C1.14838 15.5246 1.15723 15.5584 1.17404 15.5882C1.18981 15.6183 1.21333 15.6433 1.24203 15.6606C1.27074 15.6779 1.30353 15.6868 1.33683 15.6863H16.659C16.6923 15.6868 16.7251 15.6779 16.7538 15.6606C16.7825 15.6433 16.806 15.6183 16.8218 15.5882C16.8386 15.5584 16.8475 15.5246 16.8475 15.4902C16.8475 15.4558 16.8386 15.422 16.8218 15.3922Z" fill="white"/>
</svg>
